<svg width="38" height="38" viewBox="0 0 38 38" fill="none" xmlns="http://www.w3.org/2000/svg">
<path fill-rule="evenodd" clip-rule="evenodd" d="M3.3995 3.58556C2.7564 3.45694 2.13079 3.87401 2.00217 4.51711C1.87355 5.16021 2.29062 5.78582 2.93372 5.91444L4.59521 6.24674C5.44823 6.41734 6.08985 7.12494 6.17641 7.99054L6.41834 10.4098L6.4195 10.4215L6.4209 10.4332L7.98618 23.4771C8.24878 25.6655 10.1052 27.3125 12.3093 27.3125H26.5481C29.6359 27.3125 32.3275 25.211 33.0764 22.2154L34.8541 15.1046C35.6161 12.0567 33.3108 9.10417 30.1691 9.10417H8.67462L8.53962 7.75421C8.34919 5.8499 6.93763 4.29319 5.06099 3.91786L3.3995 3.58556ZM10.3443 23.1941L8.93846 11.4792H30.1691C31.7657 11.4792 32.9372 12.9796 32.55 14.5286L30.7723 21.6394C30.2877 23.5777 28.5461 24.9375 26.5481 24.9375H12.3093C11.3075 24.9375 10.4636 24.1889 10.3443 23.1941ZM14.2499 20.1875C13.5941 20.1875 13.0624 20.7192 13.0624 21.375C13.0624 22.0308 13.5941 22.5625 14.2499 22.5625H20.5833C21.2391 22.5625 21.7708 22.0308 21.7708 21.375C21.7708 20.7192 21.2391 20.1875 20.5833 20.1875H14.2499ZM15.8333 31.6667C15.8333 32.9783 14.77 34.0417 13.4583 34.0417C12.1466 34.0417 11.0833 32.9783 11.0833 31.6667C11.0833 30.355 12.1466 29.2917 13.4583 29.2917C14.77 29.2917 15.8333 30.355 15.8333 31.6667ZM27.7083 34.0417C29.02 34.0417 30.0833 32.9783 30.0833 31.6667C30.0833 30.355 29.02 29.2917 27.7083 29.2917C26.3966 29.2917 25.3333 30.355 25.3333 31.6667C25.3333 32.9783 26.3966 34.0417 27.7083 34.0417Z" fill="white"/>
</svg>
