<svg width="24" height="24" viewBox="0 0 24 24" fill="none" xmlns="http://www.w3.org/2000/svg">
<path d="M12 2.13003C12 2.23003 11.95 2.33003 11.89 2.41003C11.5 3.00003 11.16 3.64003 11.04 4.33003L11 4.56003L12 4.50003C13.9891 4.50003 15.8968 5.29021 17.3033 6.69673C18.7098 8.10325 19.5 10.0109 19.5 12C19.5 13.62 19 15.11 18.12 16.34C16.73 18.68 14.72 20.65 12.34 21.97C12.25 22 12.12 22 12.06 21.93C12 21.83 12 21.7 12.09 21.61C12.47 21.09 12.73 20.5 12.87 19.85L12.93 19.44L12 19.5C10.0109 19.5 8.10322 18.7099 6.6967 17.3033C5.29018 15.8968 4.5 13.9892 4.5 12C4.5 10.39 5 8.89003 5.88 7.67003C7.26 5.32003 9.28 3.34003 11.67 2.00003C11.78 1.95003 11.94 2.00003 12 2.13003ZM12 9.00003C11.2044 9.00003 10.4413 9.3161 9.87868 9.87871C9.31607 10.4413 9 11.2044 9 12C9 12.7957 9.31607 13.5587 9.87868 14.1214C10.4413 14.684 11.2044 15 12 15C12.7956 15 13.5587 14.684 14.1213 14.1214C14.6839 13.5587 15 12.7957 15 12C15 11.2044 14.6839 10.4413 14.1213 9.87871C13.5587 9.3161 12.7956 9.00003 12 9.00003Z" fill="#828282"/>
</svg>
