<svg width="284" height="60" viewBox="0 0 284 60" fill="none" xmlns="http://www.w3.org/2000/svg">
<g clip-path="url(#clip0_60_189)">
<g clip-path="url(#clip1_60_189)">
<path d="M58.5605 16.9908C56.8677 17.5528 55.2254 18.2578 53.6512 19.0983C50.7265 13.985 46.0678 10.0973 40.5249 8.14414C34.9747 10.1013 30.3114 13.997 27.3867 19.1197C25.816 18.2747 24.1759 17.5665 22.4846 17.0027C26.2165 9.55374 32.6805 3.84673 40.5178 1.08112C48.3564 3.84199 54.8236 9.54464 58.5605 16.9908Z" fill="url(#paint0_linear_60_189)"/>
<path d="M27.7782 20.4794L26.9074 20.0032C25.3865 19.1876 23.7988 18.5041 22.1618 17.96L21.0466 17.5885L21.5734 16.5336C25.4147 8.84049 32.0919 2.95245 40.1879 0.119067L40.5249 0L40.8618 0.119067C48.9548 2.9547 55.629 8.84236 59.4693 16.5336L59.9984 17.5885L58.8808 17.9576C57.2444 18.5022 55.6568 19.1849 54.1352 19.9984L53.2668 20.4604L52.778 19.6031C50.0354 14.8082 45.7008 11.1332 40.532 9.22051C35.357 11.1355 31.0185 14.8169 28.2765 19.6198L27.7782 20.4794ZM23.9296 16.4312C24.9795 16.8241 26.009 17.27 27.0142 17.7671C30.0851 12.8386 34.7336 9.10367 40.1974 7.17495L40.5344 7.05826L40.8713 7.17495C46.3307 9.10097 50.9759 12.8317 54.0451 17.7552C55.0496 17.2574 56.0792 16.8122 57.1297 16.4217C53.509 9.79881 47.6049 4.72943 40.5249 2.16463C33.4477 4.73512 27.5473 9.80749 23.9296 16.4312Z" fill="white"/>
<path d="M72.7972 51.4653C70.0123 54.1873 66.615 56.1959 62.8929 57.3213C59.1708 58.4467 55.2333 58.6557 51.4136 57.9306C54.9804 55.9437 58.0893 53.2237 60.537 49.9484C61.8225 48.2212 62.9106 46.3544 63.7806 44.3832C63.8613 44.2023 63.9396 44.026 64.0179 43.8474C64.1579 43.5141 64.2908 43.1831 64.4141 42.8568C64.4545 42.7497 64.4972 42.6401 64.5352 42.5306L64.6277 42.2734C64.7795 41.8447 64.9172 41.4233 65.0429 41.0137C65.0951 40.8517 65.1426 40.6874 65.1877 40.5374C65.2826 40.2159 65.3656 39.9016 65.4439 39.5849C65.5033 39.3467 65.5578 39.13 65.6077 38.9086C65.6765 38.6133 65.7382 38.3251 65.7927 38.0465C65.8046 37.9751 65.8212 37.906 65.8331 37.8346C65.9398 37.2869 66.0205 36.7749 66.087 36.3058C66.087 36.2462 66.1012 36.1867 66.1107 36.1296C66.1249 36.0129 66.1415 35.9033 66.1534 35.7938C66.1937 35.4675 66.2269 35.1651 66.2507 34.8936C66.0703 34.9103 65.8758 34.9317 65.6741 34.9556L65.1995 35.0127L64.6823 35.0842L64.3169 35.1413C64.1294 35.1699 63.9348 35.2008 63.7355 35.2389L63.2301 35.3342C63.0569 35.3675 62.8813 35.4032 62.701 35.4437C62.4851 35.489 62.2644 35.539 62.0413 35.5938L61.5953 35.7009L61.3176 35.7747L61.2749 35.7866L61.0139 35.8581L60.9522 35.8748C60.8811 35.8914 60.8146 35.9129 60.7458 35.9343L60.4563 36.0176C60.3306 36.0534 60.2048 36.0915 60.0743 36.1343L59.9438 36.1724L59.6021 36.2843L59.493 36.3201L59.3791 36.3605C59.2201 36.4106 59.0611 36.4677 58.9045 36.5249C58.8215 36.5558 58.7337 36.5844 58.6506 36.6177C58.3469 36.7297 58.0408 36.8559 57.7347 36.9725C57.4286 37.0892 57.1131 37.2273 56.7999 37.3702C56.4866 37.5131 56.2067 37.6393 55.9077 37.7846L55.3358 38.0703L55.0464 38.2204L54.4698 38.5347C54.1779 38.6966 53.8884 38.8657 53.5966 39.0419L53.3024 39.2229C53.2051 39.2824 53.1078 39.342 53.0105 39.4063L52.7186 39.5944L52.6142 39.6634C52.5526 39.7063 52.4909 39.7492 52.4268 39.7897C52.2963 39.8778 52.1705 39.9635 52.0424 40.054L52.0021 40.0826C51.9261 40.135 51.8502 40.1873 51.7648 40.2469C51.7376 40.2627 51.7115 40.2802 51.6865 40.2993C51.6153 40.3493 51.5465 40.3993 51.4753 40.4541C51.4679 40.4572 51.4614 40.4621 51.4563 40.4683L51.2475 40.6207C51.1447 40.6969 51.0427 40.7763 50.9414 40.8589C50.8584 40.9208 50.7753 40.9875 50.6923 41.0541C50.6092 41.1208 50.455 41.2375 50.3459 41.3304L50.0587 41.5685C49.8476 41.7423 49.6388 41.9209 49.4371 42.1019L49.2212 42.2972C48.5694 42.8846 47.9612 43.4863 47.3965 44.1022L47.2921 44.2166L47.0311 44.5047C46.9456 44.6023 46.8602 44.6976 46.7772 44.7952C46.4711 45.1477 46.1792 45.5096 45.9016 45.8573C45.8304 45.943 45.764 46.0311 45.6999 46.1169C45.363 46.5518 45.0466 46.9876 44.7508 47.4242C44.7176 47.4742 44.682 47.5242 44.6512 47.5742C44.387 47.9616 44.1394 48.3466 43.9085 48.7292C43.7993 48.9078 43.6925 49.084 43.5953 49.2602C43.498 49.4364 43.3912 49.6103 43.2939 49.7841C42.7336 46.7692 42.7416 43.6755 43.3176 40.6636C43.7865 38.1958 44.635 35.8161 45.8328 33.6101C48.0943 29.4407 51.5468 26.0454 55.7463 23.8609C57.28 23.0604 58.8948 22.4274 60.5631 21.9725C66.2371 20.4309 72.2741 20.987 77.5736 23.5395C82.0701 32.9648 80.1291 44.2475 72.7972 51.4653Z" fill="url(#paint1_linear_60_189)"/>
<path d="M55.9053 59.3666C54.3364 59.3662 52.7709 59.2212 51.2285 58.9332L48.469 58.4188L50.9177 57.0424C56.2112 54.1087 60.4029 49.5172 62.8528 43.9689L63 43.6355L63.0783 43.4474C63.2111 43.1283 63.3393 42.8068 63.4603 42.4948C63.4982 42.3925 63.5386 42.2901 63.5742 42.1853L63.6121 42.0853L63.6643 41.9352C63.7901 41.578 63.9016 41.2208 64.0226 40.8589L64.0701 40.7065C64.1057 40.5993 64.1365 40.4922 64.1674 40.3874L64.2077 40.2445C64.2813 39.9897 64.3525 39.7301 64.4236 39.4563L64.4569 39.3253C64.4569 39.292 64.4735 39.2586 64.483 39.2253L64.4047 39.1467L64.6419 38.5871C64.6965 38.349 64.7463 38.1108 64.7985 37.8489C64.7985 37.8155 64.8128 37.7703 64.8199 37.7274L64.8365 37.6465C64.9314 37.1535 65.0145 36.6558 65.0738 36.1629V36.0843C65.0738 36.0843 65.0738 36.0605 65.0738 36.0486L64.7914 36.0891H64.7179L64.4497 36.1319H64.4308C64.2552 36.1581 64.0701 36.1891 63.8826 36.2248C63.6952 36.2605 63.5552 36.2843 63.3915 36.3177C63.2277 36.351 63.0498 36.3867 62.8789 36.4225C62.6654 36.4677 62.4566 36.5153 62.243 36.5677C62.0959 36.6011 61.9559 36.6344 61.8112 36.6725L61.5526 36.7416L61.4837 36.7582L61.2607 36.8201L61.1587 36.8487C61.1096 36.8598 61.0598 36.8741 61.0092 36.8916H60.976C60.8929 36.913 60.8051 36.9392 60.7197 36.9654H60.6889C60.575 36.9964 60.4516 37.0321 60.3448 37.0702H60.3306L60.2024 37.1083L59.8797 37.2131L59.7919 37.2416L59.6614 37.2869C59.512 37.3345 59.3648 37.3869 59.2177 37.4393L59.1465 37.4655L58.971 37.5298H58.9544C58.6435 37.6441 58.3564 37.756 58.0764 37.8703C57.7964 37.9846 57.4714 38.1084 57.1724 38.2537C56.9351 38.3537 56.7216 38.4585 56.4938 38.5657L56.3111 38.6561L55.7606 38.9657L55.4853 39.1086L54.9348 39.4086C54.6596 39.5611 54.3867 39.7182 54.0901 39.8992C53.9976 39.9564 53.9074 40.0087 53.8196 40.0659L53.7912 40.0849L53.5278 40.2493L53.2478 40.4302L53.1908 40.4683L53.058 40.5564L52.9512 40.6279C52.8373 40.7041 52.7139 40.7851 52.5976 40.866L52.5075 40.9303C52.46 40.9637 52.4078 40.997 52.3604 41.0351L52.2441 41.1184L52.097 41.2232L51.9285 41.3447L51.8407 41.4113C51.7434 41.4828 51.6485 41.5566 51.5536 41.6304L51.5323 41.6495C51.4587 41.7019 51.3875 41.759 51.3187 41.8162L51.2926 41.8376C51.1858 41.9186 51.0791 42.0019 50.977 42.0757H50.9652L50.697 42.2972V42.3091C50.493 42.4758 50.296 42.6449 50.1133 42.8092L50.092 42.8282L49.914 42.9878L49.8998 42.9997C49.2805 43.5593 48.6896 44.1451 48.1368 44.7428L48.0276 44.8643C47.947 44.95 47.8663 45.0405 47.7904 45.131L47.5531 45.4144C47.2612 45.7525 46.9765 46.0954 46.7084 46.4383C46.6419 46.5217 46.5802 46.6003 46.5209 46.6765V46.6908C46.203 47.1027 45.8969 47.5242 45.6098 47.9457L45.5196 48.0791V48.0957C45.2823 48.4482 45.045 48.8101 44.8078 49.2102C44.7057 49.3769 44.6061 49.5436 44.5112 49.7103V49.727C44.4115 49.896 44.3142 50.0627 44.2217 50.2318L42.8502 52.6774L42.3377 49.9175C41.7511 46.7777 41.7592 43.5551 42.3614 40.4183C42.8342 37.8606 43.6995 35.392 44.9264 33.1005C47.2846 28.7545 50.8841 25.2158 55.2623 22.9394C56.8604 22.1058 58.5428 21.4464 60.2807 20.9724C66.1896 19.3654 72.4772 19.9443 77.996 22.6036L78.3187 22.7584L78.4729 23.0822C83.1829 32.9338 81.1874 44.6309 73.5091 52.1916C68.8035 56.8042 62.483 59.3804 55.9053 59.3666ZM54.3796 57.2781C54.8905 57.3115 55.3999 57.3282 55.9077 57.3282C61.9523 57.3423 67.7612 54.9755 72.0854 50.7366C79.059 43.8713 80.9312 33.2839 76.793 24.2896C71.7886 21.9728 66.1318 21.4957 60.8122 22.9417C59.2146 23.3765 57.6681 23.9825 56.1995 24.7492C52.1792 26.8403 48.8738 30.0904 46.7084 34.0816C44.6038 37.9685 43.6396 42.3742 43.9275 46.7884C44.2217 46.355 44.542 45.9121 44.8766 45.4834L45.0925 45.2048C45.3749 44.8428 45.681 44.4714 45.9965 44.1094L46.2575 43.8093C46.3477 43.7093 46.4402 43.6045 46.5352 43.5045L46.6419 43.3878C47.228 42.7473 47.8663 42.1162 48.5283 41.5209C48.5995 41.4566 48.6707 41.3923 48.7442 41.3304C48.9483 41.1446 49.1666 40.9565 49.392 40.7708L49.6815 40.5326C49.7977 40.435 49.9188 40.3374 50.0421 40.2445L50.3008 40.0421C50.4052 39.9587 50.512 39.8778 50.6164 39.8039L50.8062 39.6634C50.8273 39.6462 50.8495 39.6303 50.8726 39.6158C50.9367 39.5658 51.0008 39.5206 51.0672 39.4753C51.0957 39.4539 51.1265 39.4301 51.1597 39.4086L51.3614 39.2658L51.4184 39.2229L51.817 38.949L51.9997 38.8276L52.0661 38.7824L52.4149 38.5442C52.517 38.4775 52.619 38.4132 52.7234 38.3513C52.8278 38.2894 52.9251 38.2251 53.0271 38.1632C53.3451 37.9703 53.644 37.7965 53.9359 37.6369C54.1257 37.5274 54.3274 37.4202 54.5267 37.3131L54.8186 37.1607L54.847 37.1464L55.4189 36.8654C55.7297 36.713 56.0406 36.5677 56.3443 36.4344C56.648 36.301 56.992 36.151 57.3124 36.0224C57.6327 35.8938 57.9174 35.7843 58.2496 35.6604L58.4584 35.5818L58.5439 35.5533C58.7028 35.4961 58.8642 35.4413 59.0184 35.389L59.1133 35.3556L59.2486 35.3104L59.5855 35.2008H59.6211L59.7326 35.1699L60.1265 35.0484L60.4184 34.9651C60.4919 34.9413 60.5631 34.9222 60.6367 34.9032L60.7126 34.8817C60.798 34.8555 60.8834 34.8317 60.9665 34.8127L61.0258 34.796L61.2963 34.7246C61.46 34.6817 61.6119 34.646 61.7709 34.6103C61.9915 34.5555 62.2241 34.5031 62.4542 34.4555C62.6369 34.415 62.822 34.3769 63.0047 34.3412L63.5267 34.2435C63.7213 34.2078 63.923 34.1745 64.1152 34.1435L64.483 34.0864H64.5589L65.0334 34.0221H65.1023L65.5341 33.9697H65.591L66.1297 33.9149L67.2425 33.8054V33.9125H67.3374L67.2425 35.0222C67.2164 35.308 67.1832 35.6223 67.1405 35.9605C67.1405 36.0391 67.1191 36.1248 67.1073 36.2105L67.0835 36.3867L67.0693 36.4939C66.9981 37.013 66.9103 37.5464 66.8083 38.068C66.8083 38.0989 66.7964 38.1346 66.7893 38.1727C66.7822 38.2108 66.7751 38.2346 66.7703 38.268C66.7466 38.3894 66.7229 38.5061 66.6991 38.6228L66.6493 38.8371C66.6303 38.9324 66.609 39.0252 66.5876 39.1157V39.1705C66.552 39.3301 66.5164 39.4825 66.4785 39.6277L66.3954 39.9635C66.3219 40.2516 66.2459 40.5255 66.1581 40.7946L66.1415 40.8493C66.0988 41.0041 66.0537 41.1613 66.0039 41.3256L65.9921 41.3685C65.8592 41.8019 65.7144 42.24 65.5626 42.6687L65.5009 42.8401L65.489 42.864C65.4487 42.9783 65.4036 43.1021 65.3609 43.2069C65.2446 43.5164 65.1236 43.8284 64.9907 44.1403L64.9551 44.2285C64.8768 44.4142 64.7962 44.5999 64.7179 44.7905C62.4924 49.8293 58.9167 54.1491 54.3891 57.2686L54.3796 57.2781Z" fill="white"/>
<path d="M58.5605 16.9908C56.8677 17.5528 55.2254 18.2579 53.6512 19.0983C50.7265 13.985 46.0679 10.0973 40.5249 8.14417C34.9747 10.1013 30.3114 13.9971 27.3868 19.1197C25.816 18.2747 24.1759 17.5665 22.4846 17.0027C21.6841 18.5982 21.0205 20.2592 20.5009 21.9678C22.1692 22.4277 23.7832 23.0664 25.3153 23.8729C29.514 26.0709 32.9622 29.4784 35.217 33.6577C36.3984 35.8487 37.2364 38.2093 37.7013 40.6565C38.2768 43.666 38.2856 46.757 37.7274 49.7698C38.8972 51.8712 39.8292 54.0973 40.5059 56.4066C41.1792 54.0971 42.1088 51.8709 43.2773 49.7698C42.717 46.7549 42.7251 43.6613 43.3011 40.6493C43.7699 38.1815 44.6184 35.8018 45.8162 33.5958C48.0777 29.4264 51.5302 26.0311 55.7298 23.8467C57.2635 23.0462 58.8783 22.4131 60.5465 21.9583C60.0263 20.2488 59.3619 18.587 58.5605 16.9908ZM40.5036 32.5504C39.7195 30.9975 38.8067 29.5135 37.7748 28.114C38.5882 26.7382 39.5077 25.4284 40.5249 24.1967C41.5346 25.4172 42.4478 26.715 43.256 28.0783C42.2154 29.4891 41.2947 30.985 40.5036 32.5504Z" fill="url(#paint2_linear_60_189)"/>
<path d="M40.5035 60.0095L39.5283 56.6757C38.8736 54.4387 37.9718 52.2821 36.84 50.2461L36.6596 49.9246L36.7261 49.5602C37.2652 46.6722 37.2571 43.7081 36.7023 40.8231C36.2591 38.4796 35.4588 36.2186 34.3295 34.1197C32.8557 31.3956 30.8471 28.9994 28.4251 27.0758C26.0031 25.1522 23.2179 23.741 20.2375 22.9274L19.2196 22.675L19.5281 21.6701C20.0669 19.9068 20.7519 18.1918 21.5758 16.5431L21.9697 15.7573L22.8049 16.0335C24.2432 16.5129 25.6465 17.0922 27.0047 17.7671C30.0756 12.8386 34.7241 9.10367 40.188 7.17494L40.5249 7.05826L40.8618 7.17494C46.3212 9.10097 50.9664 12.8317 54.0356 17.7552C55.396 17.0804 56.8017 16.5019 58.2425 16.024L59.073 15.7454L59.4693 16.5312C60.2954 18.1833 60.9812 19.9023 61.5194 21.6701L61.8255 22.6774L60.8123 22.9536C59.2146 23.3884 57.6681 23.9944 56.1996 24.7611C52.1792 26.8522 48.8738 30.1023 46.7084 34.0935C44.1498 38.822 43.291 44.2902 44.2763 49.5793L44.2929 49.6722V50.0341L44.1624 50.2723C43.0318 52.2991 42.1316 54.4471 41.4788 56.6757L40.5035 60.0095ZM38.788 49.5936C39.435 50.7832 40.008 52.012 40.5035 53.2727C40.9965 52.0139 41.5679 50.7875 42.2143 49.6007C41.2405 43.9511 42.1962 38.1369 44.9264 33.1005C47.2846 28.7545 50.8842 25.2158 55.2623 22.9394C56.5443 22.2701 57.8811 21.7124 59.2581 21.2724C58.9072 20.243 58.5008 19.2334 58.0409 18.2481C56.6976 18.7414 55.3902 19.3278 54.1281 20.0032L53.2597 20.4651L52.7709 19.6079C50.0283 14.813 45.6937 11.138 40.5249 9.22527C35.3499 11.1402 31.0114 14.8217 28.2694 19.6245L27.7783 20.4794L26.9075 20.0032C25.6529 19.3314 24.3525 18.7497 23.0161 18.2624C22.5583 19.2483 22.1528 20.2578 21.8012 21.2867C27.9278 23.2326 33.0625 27.4894 36.1234 33.16C38.8205 38.1829 39.7628 43.9679 38.7999 49.5912L38.788 49.5936ZM40.5035 34.8127L39.5971 33.0219C38.8379 31.522 37.9553 30.0882 36.9586 28.7355L36.5576 28.1926L36.9017 27.6091C37.7439 26.1871 38.6959 24.8335 39.749 23.5609L40.532 22.6083L41.3127 23.5609C42.3535 24.8185 43.2967 26.1544 44.1339 27.5567L44.478 28.1402L44.077 28.6855C43.0705 30.0505 42.18 31.4979 41.4147 33.0124L40.5035 34.8127ZM38.9945 28.0759C39.5283 28.8331 40.0314 29.6214 40.5035 30.431C40.9781 29.6118 41.493 28.8117 42.0364 28.0497C41.5618 27.2996 41.0635 26.5637 40.5249 25.8541C39.9792 26.5566 39.4666 27.3019 38.9945 28.0664V28.0759Z" fill="white"/>
<path d="M37.7274 49.7698C37.5329 49.419 37.3272 49.0681 37.1105 48.7173C36.118 47.0848 34.968 45.5542 33.6771 44.1475C31.2627 41.5181 28.3791 39.3656 25.1753 37.8012C23.3538 36.9085 21.4455 36.2063 19.4806 35.7057C17.9314 35.308 16.3534 35.0333 14.7612 34.8841C15.2524 40.3372 17.2273 45.55 20.4701 49.9532C22.9161 53.231 26.0263 55.9514 29.5959 57.9354C25.776 58.6599 21.8385 58.4509 18.1161 57.326C14.3938 56.2011 10.996 54.1933 8.20989 51.4725C0.873214 44.2427 -1.07248 32.9624 3.44295 23.5204C8.75773 20.9604 14.814 20.4092 20.5009 21.9678C22.1692 22.4276 23.7833 23.0663 25.3153 23.8728C29.5141 26.0709 32.9622 29.4784 35.217 33.6577C36.3985 35.8487 37.2364 38.2093 37.7013 40.6565C38.2768 43.666 38.2857 46.757 37.7274 49.7698Z" fill="url(#paint3_linear_60_189)"/>
<path d="M25.0969 59.3642C18.5193 59.3782 12.1986 56.8021 7.4932 52.1892C-0.187524 44.6261 -2.18304 32.929 2.52695 23.0799L2.68118 22.756L3.00151 22.6012C8.53728 19.9345 14.8455 19.3604 20.769 20.9843C24.015 21.8645 27.0488 23.3977 29.6862 25.4907C32.3237 27.5838 34.5097 30.193 36.1114 33.16C37.3413 35.443 38.2136 37.9023 38.6978 40.4517C39.2996 43.5868 39.3085 46.8076 38.7239 49.946L38.2019 52.7179L36.8304 50.258C36.6501 49.9317 36.4555 49.5983 36.2348 49.2411C35.2728 47.6656 34.1602 46.1878 32.9129 44.8285C31.7696 43.5845 30.5146 42.4485 29.1639 41.4351C27.7736 40.393 26.2888 39.4841 24.7292 38.7204C22.9671 37.8539 21.1208 37.1716 19.2195 36.6844C18.1258 36.4031 17.0166 36.186 15.8976 36.0343C16.5347 40.8528 18.3825 45.4295 21.2673 49.334C23.629 52.4965 26.6307 55.1219 30.0751 57.0376L32.5285 58.4116L29.7666 58.9284C28.2267 59.2175 26.6635 59.3634 25.0969 59.3642ZM4.20451 24.2896C0.0711102 33.2791 1.94087 43.8665 8.91451 50.7342C11.2424 53.0121 14.0226 54.7719 17.0739 55.8986C20.1251 57.0254 23.3788 57.4938 26.6227 57.2734C23.948 55.4323 21.5929 53.1629 19.6514 50.5556C16.2935 46.0033 14.2494 40.611 13.7431 34.9698L13.6316 33.7458L14.8489 33.8601C16.4947 34.0136 18.1259 34.2971 19.7273 34.7079C21.76 35.2258 23.7342 35.9519 25.619 36.8749C28.9358 38.496 31.9214 40.7251 34.422 43.4474C35.3836 44.4944 36.27 45.6085 37.0748 46.7812C37.2036 44.789 37.0784 42.7884 36.7023 40.8279C36.2591 38.4844 35.4588 36.2234 34.3295 34.1245C32.8556 31.4004 30.8471 29.0042 28.4251 27.0806C26.0031 25.157 23.2178 23.7458 20.2375 22.9322C14.9007 21.4747 9.22256 21.9555 4.20451 24.2896Z" fill="white"/>
</g>
<path d="M105.72 32.0661L110.776 32.3603C110.539 34.5011 109.72 36.1429 108.321 37.2857C106.93 38.4286 105.218 39 103.185 39C100.738 39 98.7626 38.2154 97.2575 36.6461C95.7525 35.0768 95 32.9104 95 30.1471C95 27.4094 95.7129 25.2004 97.1387 23.5203C98.5645 21.8401 100.554 21 103.106 21C105.491 21 107.322 21.6397 108.598 22.919C109.883 24.1983 110.609 25.8955 110.776 28.0107L105.614 28.2793C105.614 27.1109 105.381 26.2665 104.915 25.7463C104.457 25.226 103.916 24.9659 103.291 24.9659C101.548 24.9659 100.677 26.6631 100.677 30.0576C100.677 31.9595 100.901 33.2516 101.35 33.9339C101.808 34.6162 102.446 34.9574 103.264 34.9574C104.725 34.9574 105.544 33.9936 105.72 32.0661Z" fill="white"/>
<path d="M125.444 34.4456V38.7313H112.81V21.2687H118.341V34.4456H125.444Z" fill="white"/>
<path d="M134.936 39C132.401 39 130.333 38.1855 128.731 36.5565C127.138 34.9275 126.342 32.7484 126.342 30.0192C126.342 27.4094 127.103 25.2559 128.626 23.5586C130.157 21.8529 132.278 21 134.989 21C137.497 21 139.539 21.8017 141.115 23.4051C142.699 25.0085 143.491 27.1493 143.491 29.8273C143.491 32.5991 142.694 34.8209 141.101 36.4925C139.508 38.1642 137.453 39 134.936 39ZM134.91 35.0341C135.843 35.0341 136.512 34.6418 136.916 33.8571C137.33 33.064 137.537 31.6183 137.537 29.5203C137.537 26.484 136.696 24.9659 135.015 24.9659C133.202 24.9659 132.296 26.6972 132.296 30.1599C132.296 33.4094 133.167 35.0341 134.91 35.0341Z" fill="white"/>
<path d="M160.852 21.2687L155.254 38.7313H149.617L143.781 21.2687H149.617L152.455 30.7868C152.649 31.3497 152.82 31.9041 152.97 32.4499L156.297 21.2687H160.852Z" fill="white"/>
<path d="M176.087 34.5608V38.7313H162.528V21.2687H176.087V25.2985H167.954V27.8316H174.529V31.7079H167.954V34.5608H176.087Z" fill="white"/>
<path d="M194.332 38.7313H188.193L185.566 32.0533H183.823V38.7313H178.291V21.2687H187.705C189.782 21.2687 191.392 21.742 192.536 22.6887C193.689 23.6269 194.266 24.8678 194.266 26.4115C194.266 27.4179 194.055 28.3092 193.632 29.0853C193.21 29.8529 192.356 30.5309 191.071 31.1194L194.332 38.7313ZM183.823 28.3177H186.186C186.882 28.3177 187.44 28.177 187.863 27.8955C188.285 27.6141 188.497 27.2004 188.497 26.6546C188.497 25.5373 187.788 24.9787 186.371 24.9787H183.823V28.3177Z" fill="white"/>
<path d="M201.857 33.678L206.993 32.7825C207.424 34.1898 208.533 34.8934 210.32 34.8934C211.71 34.8934 212.405 34.5352 212.405 33.8188C212.405 33.4435 212.243 33.1535 211.917 32.9488C211.6 32.7356 211.028 32.548 210.201 32.3859C207.041 31.7974 205.012 31.0299 204.115 30.0832C203.217 29.1365 202.768 28.0235 202.768 26.7441C202.768 25.0981 203.411 23.7292 204.696 22.6375C205.989 21.5458 207.846 21 210.267 21C213.937 21 216.362 22.4286 217.541 25.2857L212.96 26.629C212.485 25.4606 211.521 24.8763 210.069 24.8763C208.863 24.8763 208.26 25.2388 208.26 25.9638C208.26 26.2878 208.396 26.5394 208.669 26.7186C208.942 26.8977 209.47 27.0682 210.254 27.2303C212.41 27.6738 213.941 28.0661 214.848 28.4073C215.754 28.7484 216.511 29.3326 217.119 30.1599C217.726 30.9787 218.03 31.9467 218.03 33.064C218.03 34.8294 217.29 36.2623 215.812 37.3625C214.333 38.4542 212.392 39 209.99 39C205.598 39 202.887 37.226 201.857 33.678Z" fill="white"/>
<path d="M227.759 25.452V38.7313H222.518V25.452H218.782V21.2687H231.496V25.452H227.759Z" fill="white"/>
<path d="M240.869 39C238.334 39 236.266 38.1855 234.664 36.5565C233.071 34.9275 232.275 32.7484 232.275 30.0192C232.275 27.4094 233.036 25.2559 234.558 23.5586C236.09 21.8529 238.211 21 240.922 21C243.43 21 245.472 21.8017 247.048 23.4051C248.632 25.0085 249.424 27.1493 249.424 29.8273C249.424 32.5991 248.627 34.8209 247.034 36.4925C245.441 38.1642 243.386 39 240.869 39ZM240.843 35.0341C241.776 35.0341 242.444 34.6418 242.849 33.8571C243.263 33.064 243.47 31.6183 243.47 29.5203C243.47 26.484 242.629 24.9659 240.948 24.9659C239.135 24.9659 238.229 26.6972 238.229 30.1599C238.229 33.4094 239.1 35.0341 240.843 35.0341Z" fill="white"/>
<path d="M267.814 38.7313H261.675L259.048 32.0533H257.306V38.7313H251.774V21.2687H261.187C263.264 21.2687 264.875 21.742 266.019 22.6887C267.172 23.6269 267.748 24.8678 267.748 26.4115C267.748 27.4179 267.537 28.3092 267.115 29.0853C266.692 29.8529 265.838 30.5309 264.553 31.1194L267.814 38.7313ZM257.306 28.3177H259.669C260.364 28.3177 260.923 28.177 261.345 27.8955C261.768 27.6141 261.979 27.2004 261.979 26.6546C261.979 25.5373 261.271 24.9787 259.854 24.9787H257.306V28.3177Z" fill="white"/>
<path d="M284 34.5608V38.7313H270.442V21.2687H284V25.2985H275.868V27.8316H282.442V31.7079H275.868V34.5608H284Z" fill="white"/>
</g>
<defs>
<linearGradient id="paint0_linear_60_189" x1="22.4846" y1="10.0968" x2="58.5605" y2="10.0968" gradientUnits="userSpaceOnUse">
<stop stop-color="#D60B52"/>
<stop offset="1" stop-color="#812E77"/>
</linearGradient>
<linearGradient id="paint1_linear_60_189" x1="42.8621" y1="39.723" x2="79.9725" y2="39.723" gradientUnits="userSpaceOnUse">
<stop stop-color="#D60B52"/>
<stop offset="1" stop-color="#812E77"/>
</linearGradient>
<linearGradient id="paint2_linear_60_189" x1="20.5009" y1="32.267" x2="60.5465" y2="32.267" gradientUnits="userSpaceOnUse">
<stop stop-color="#D60B52"/>
<stop offset="1" stop-color="#812E77"/>
</linearGradient>
<linearGradient id="paint3_linear_60_189" x1="1.02745" y1="39.7206" x2="38.1379" y2="39.7206" gradientUnits="userSpaceOnUse">
<stop stop-color="#D60B52"/>
<stop offset="1" stop-color="#812E77"/>
</linearGradient>
<clipPath id="clip0_60_189">
<rect width="284" height="60" fill="white"/>
</clipPath>
<clipPath id="clip1_60_189">
<rect width="81" height="60" fill="white"/>
</clipPath>
</defs>
</svg>
